# xmcd CD database file
#
# Track frame offsets:
#	183
#	10545
#	29805
#	46123
#	63450
#	75975
#	89203
#	107910
#	124205
#	136555
#	152620
#	166363
#	182510
#	196205
#
# Disc length: 2898 seconds
#
# Revision: 3
# Processed by: cddbd v1.4PL0 Copyright (c) Steve Scherf et al.
# Submitted via: CDex 1.50
#
DISCID=ad0b500e
DTITLE=Dr Feelgood - Live in London
DYEAR=1990
DGENRE=Rock
TTITLE0=King for a Day
TTITLE1=You Upset Me
TTITLE2=As Long as the Price is Right
TTITLE3=Mad Man Blues
TTITLE4=She Does it Right
TTITLE5=Baby Jane
TTITLE6=Quit While You're Behind
TTITLE7=Back in the Night
TTITLE8=Milk and Alcohol
TTITLE9=See You Later Alligator
TTITLE10=Down at the Doctors
TTITLE11=Route 66
TTITLE12=Going Back Home
TTITLE13=Bony Maronie/Tequila
EXTD=YEAR: 1990
EXTT0=
EXTT1=
EXTT2=
EXTT3=
EXTT4=
EXTT5=
EXTT6=
EXTT7=
EXTT8=
EXTT9=
EXTT10=
EXTT11=
EXTT12=
EXTT13=
PLAYORDER=
